<svg xmlns="http://www.w3.org/2000/svg" width="35" height="35" viewBox="0 0 35 35">
  <g id="add_to_cart" data-name="add to cart" transform="translate(-84.722 -216)">
    <circle id="Ellipse_6" data-name="Ellipse 6" cx="17.5" cy="17.5" r="17.5" transform="translate(84.722 216)" fill="#c00"/>
    <path id="Icon_awesome-shopping-cart" data-name="Icon awesome-shopping-cart" d="M17.421,10,18.98,3.1a.8.8,0,0,0-.772-.973H5.252L4.949.637A.793.793,0,0,0,4.174,0H.792A.794.794,0,0,0,0,.8v.531a.794.794,0,0,0,.792.8H3.1l2.317,11.4a1.849,1.849,0,1,0,2.212.284h6.915a1.846,1.846,0,1,0,2.1-.345l.182-.806a.8.8,0,0,0-.772-.973H7.195l-.216-1.062h9.67A.793.793,0,0,0,17.421,10Z" transform="translate(91 225)" fill="none" stroke="#fff" stroke-width="2"/>
  </g>
</svg>
