<svg xmlns="http://www.w3.org/2000/svg" width="20" height="20" viewBox="0 0 20 20">
  <path id="Icon_awesome-shopping-cart" data-name="Icon awesome-shopping-cart" d="M18.338,11.77l1.641-8.125A.916.916,0,0,0,19.166,2.5H5.528L5.21.75A.864.864,0,0,0,4.393,0H.833A.89.89,0,0,0,0,.938v.625A.89.89,0,0,0,.833,2.5H3.26L5.7,15.915a2.246,2.246,0,0,0-.977,1.9A2.077,2.077,0,0,0,6.667,20a2.077,2.077,0,0,0,1.944-2.187,2.322,2.322,0,0,0-.584-1.562h7.279a2.322,2.322,0,0,0-.584,1.563A2.077,2.077,0,0,0,16.667,20a2.077,2.077,0,0,0,1.944-2.187,2.224,2.224,0,0,0-1.1-1.969l.192-.948a.916.916,0,0,0-.813-1.145H7.574L7.346,12.5H17.525A.861.861,0,0,0,18.338,11.77Z" fill="#fbf8f3"/>
</svg>
